<?xml version="1.0" encoding="UTF-8"?>
<svg xmlns="http://www.w3.org/2000/svg" viewBox="0 0 64 64" width="512" height="512"><g id="Ecology-Earth-Hand-Environment-World"><path d="M53.03,44.04a3.919,3.919,0,0,0-3.03.4l-8.73,5.04a3.906,3.906,0,0,0,.05-.48,4.047,4.047,0,0,0-.1-.86,23.99,23.99,0,1,0-24.56-3.69,2.532,2.532,0,0,0-.23.12L14.04,46H8v2h6.32a1,1,0,0,0,.51-.14l2.63-1.58A8.969,8.969,0,0,1,22.09,45h1.3a9.058,9.058,0,0,1,3.34.64l3.22,1.29a.9.9,0,0,0,.37.07h7a2,2,0,0,1,0,4H27v2H37.83a5.009,5.009,0,0,0,2.5-.67L51,46.17a1.969,1.969,0,0,1,1.52-.2A2,2,0,0,1,53,49.63L39.37,57.51a14.956,14.956,0,0,1-9.16,1.92L17.43,58.01a.81.81,0,0,0-.22,0l-9.32,1,.22,1.98,9.21-.98,12.67,1.4a17.29,17.29,0,0,0,1.9.11,16.957,16.957,0,0,0,8.48-2.28L54,51.37a4.006,4.006,0,0,0,1.46-5.47A3.933,3.933,0,0,0,53.03,44.04ZM54,26a22.017,22.017,0,0,1-3.59,12L49,36.59V33.33a2.011,2.011,0,0,0-.4-1.2L46,28.67V25.44a2.033,2.033,0,0,0-.59-1.42l-1.26-1.25a2,2,0,0,0-2.04-.51l-2.15.7-3.14-.76-.75-3.01L37.54,17H40.7l2.57,1.71a2.209,2.209,0,0,0,.72.31l4.48.9a2.136,2.136,0,0,0,1.36-.24l2.71-1.55A21.915,21.915,0,0,1,54,26ZM44.41,7.85a22.016,22.016,0,0,1,4.09,3.62l-.57.38-3.14-1.57a1.976,1.976,0,0,0-1.39-.16l-3.22.8-1.8-1.19L39.54,8H43.7A1.921,1.921,0,0,0,44.41,7.85ZM26.18,4.79l.7,1.25a1.986,1.986,0,0,0,1.43,1.03l4,.66-.93,1.39-3.3.83a1.953,1.953,0,0,0-1.09.73l-2.65,3.53-3.67,1.84-4.06.81A2,2,0,0,0,15,18.82v1.64a2,2,0,0,0,.9,1.67L18,23.54v1.85l-4.35-2.18-2.73-3.5A22.1,22.1,0,0,1,26.18,4.79ZM27,42.62v1a11.5,11.5,0,0,0-1.9-.48L24,39.85V36.62a1.98,1.98,0,0,0-1.1-1.79l-1.3-.65L20,32.59V29.57l3.85-2.34,2.13,2.16a2,2,0,0,0,1.44.61h3.04l1.38,2.09a2,2,0,0,0,1.67.91h1.17l-.56,2.25-1.74.57a2.016,2.016,0,0,0-1.37,1.89L31,39.38l-2.9,1.45A1.98,1.98,0,0,0,27,42.62Zm13.3,3.74A3.973,3.973,0,0,0,37.32,45H30.51L29,44.4V42.61l2.89-1.44A2,2,0,0,0,33,39.4l.01-1.68,1.74-.57a2.013,2.013,0,0,0,1.31-1.42l.56-2.24A2,2,0,0,0,34.68,31H33.52l-1.39-2.11A2.011,2.011,0,0,0,30.46,28H27.42l-2.15-2.18a2.024,2.024,0,0,0-2.47-.29l-3.86,2.35a2,2,0,0,0-.94,1.7v3.01A2.016,2.016,0,0,0,18.58,34l1.6,1.6a2.184,2.184,0,0,0,.52.36l1.3.66v3.23a2.524,2.524,0,0,0,.1.64L22.94,43h-.85a11.067,11.067,0,0,0-3.34.54A22.009,22.009,0,0,1,10,26a22.539,22.539,0,0,1,.33-3.79l1.73,2.21a1.974,1.974,0,0,0,.69.57l4.36,2.19a2.005,2.005,0,0,0,.89.21,2.039,2.039,0,0,0,1.06-.31,1.987,1.987,0,0,0,.94-1.7V23.54a2,2,0,0,0-.9-1.67L17,20.46V18.82l4.09-.81a2.345,2.345,0,0,0,.48-.18L25.24,16a1.772,1.772,0,0,0,.7-.59l2.64-3.53,3.27-.82a1.9,1.9,0,0,0,1.19-.82l.94-1.4a2.028,2.028,0,0,0,.16-1.91,2,2,0,0,0-1.5-1.17l-4-.67-.43-.76A22.631,22.631,0,0,1,32,4a21.9,21.9,0,0,1,9.15,2H39.54a2.011,2.011,0,0,0-1.67.89L36.71,8.62a2,2,0,0,0,.57,2.76l1.8,1.2a1.955,1.955,0,0,0,1.59.28l3.21-.8,3.15,1.57a1.93,1.93,0,0,0,.9.22,1.981,1.981,0,0,0,1.1-.34l.73-.48a21.083,21.083,0,0,1,1.97,3.26l-2.9,1.66-4.44-.89-2.57-1.71A1.978,1.978,0,0,0,40.7,15H37.54a2.011,2.011,0,0,0-1.67.89L34.39,18.1a2.029,2.029,0,0,0-.25,1.57l.74,3.01a2,2,0,0,0,1.47,1.46l3.1.75a1.978,1.978,0,0,0,1.13-.03l2.15-.69L44,25.44v3.23a2.011,2.011,0,0,0,.4,1.2L47,33.33v3.26A2.016,2.016,0,0,0,47.58,38l1.65,1.64A21.821,21.821,0,0,1,40.3,46.36Z"/></g></svg>
